/* XPM */
static char *fricas[] = {
/* columns rows colors chars-per-pixel */
"71 71 256 2 ",
"   c #020202",
".  c #040609",
"X  c #070808",
"o  c #0B0B0C",
"O  c #10110F",
"+  c #040C14",
"@  c #0A0D10",
"#  c #0F1011",
"$  c #01131D",
"%  c #0D1419",
"&  c #111212",
"*  c #16191A",
"=  c #1A1B1C",
"-  c #001721",
";  c #001A24",
":  c #021E29",
">  c #0F1C21",
",  c #101C21",
"<  c #1A1F21",
"1  c #1E2223",
"2  c #1F2628",
"3  c #0C2932",
"4  c #162E34",
"5  c #0E333E",
"6  c #193034",
"7  c #1B353C",
"8  c #212424",
"9  c #252C2E",
"0  c #2A2C2C",
"q  c #2A302E",
"w  c #282E30",
"e  c #252D30",
"r  c #2A3133",
"t  c #2E3837",
"y  c #2B363A",
"u  c #23383C",
"i  c #2F393C",
"p  c #313433",
"a  c #363936",
"s  c #393A35",
"d  c #323B3C",
"f  c #3A3D3C",
"g  c #35403F",
"h  c #41433E",
"j  c #143943",
"k  c #243E44",
"l  c #313F44",
"z  c #1E434E",
"x  c #284044",
"c  c #21434D",
"v  c #374246",
"b  c #3A4041",
"n  c #374348",
"m  c #3B4A4C",
"M  c #35484D",
"N  c #304A51",
"B  c #3F4E52",
"V  c #31555F",
"C  c #3C565D",
"Z  c #375760",
"A  c #444642",
"S  c #434A4B",
"D  c #484B4A",
"F  c #494D47",
"G  c #4E504A",
"H  c #51534A",
"J  c #424E51",
"K  c #425154",
"L  c #4E5352",
"P  c #4D5856",
"I  c #43555A",
"U  c #4A5B5E",
"Y  c #465A5D",
"T  c #515555",
"R  c #5C5F56",
"E  c #545D5B",
"W  c #555C57",
"Q  c #5E615A",
"!  c #63655C",
"~  c #67685F",
"^  c #4D5E62",
"/  c #525F62",
"(  c #526265",
")  c #5C6464",
"_  c #55666B",
"`  c #5C6768",
"'  c #57686D",
"]  c #59696D",
"[  c #5B6D71",
"{  c #546F78",
"}  c #5E7173",
"|  c #557079",
" . c #5A737B",
".. c #616866",
"X. c #6B6D63",
"o. c #666C6A",
"O. c #6A6E6A",
"+. c #6F7167",
"@. c #6D726D",
"#. c #74766C",
"$. c #77786F",
"%. c #626F72",
"&. c #647274",
"*. c #6B7574",
"=. c #63767A",
"-. c #687779",
";. c #60797E",
":. c #6C7A7B",
">. c #727672",
",. c #7B7D72",
"<. c #747D7C",
"1. c #787E7B",
"2. c #777C73",
"3. c #7F8176",
"4. c #7B817D",
"5. c #808277",
"6. c #83857A",
"7. c #86887D",
"8. c #888A7F",
"9. c #677E85",
"0. c #6D7E81",
"q. c #6F8083",
"w. c #65828A",
"e. c #6E8589",
"r. c #6F888E",
"t. c #748384",
"y. c #7C8381",
"u. c #7F8886",
"i. c #758B8E",
"p. c #798C8E",
"a. c #72868A",
"s. c #668790",
"d. c #6F8990",
"f. c #6A8E99",
"g. c #758C90",
"h. c #798E92",
"j. c #7C9194",
"k. c #7C959B",
"l. c #789BA6",
"z. c #828782",
"x. c #848A86",
"c. c #8B8D82",
"v. c #858C8A",
"b. c #888E8B",
"n. c #8F9186",
"m. c #8B918C",
"M. c #909287",
"N. c #92948A",
"B. c #96988D",
"V. c #989A8F",
"C. c #829394",
"Z. c #8C9693",
"A. c #819699",
"S. c #85999B",
"D. c #8B9B9C",
"F. c #919792",
"G. c #919A97",
"H. c #9B9D92",
"J. c #969E9A",
"K. c #989F9B",
"L. c #9EA095",
"P. c #9CA29D",
"I. c #A0A297",
"U. c #A3A59A",
"Y. c #A6A89D",
"T. c #A8AA9F",
"R. c #849DA2",
"E. c #8A9EA0",
"W. c #8EA0A1",
"Q. c #8AA5AB",
"!. c #94A4A4",
"~. c #9BA6A3",
"^. c #97A8A7",
"/. c #9BA8A6",
"(. c #9DACAA",
"). c #93ADB2",
"_. c #9CAFB1",
"`. c #93B3BC",
"'. c #A2A7A1",
"]. c #A4AAA5",
"[. c #ABADA3",
"{. c #A1AEAB",
"}. c #AEB0A5",
"|. c #A4B1AE",
" X c #ACB3AD",
".X c #B0B2A7",
"XX c #B3B5AB",
"oX c #B6B8AD",
"OX c #B8BAAF",
"+X c #A6B4B3",
"@X c #ABB6B1",
"#X c #ADB8B4",
"$X c #ABBCBD",
"%X c #B2BBB5",
"&X c #BBBDB2",
"*X c #B6BEB8",
"=X c #BFC1B6",
"-X c #B7C0B9",
";X c #BCC2BB",
":X c #C0C2B7",
">X c #C2C5BC",
",X c #C5C8BE",
"<X c #C8CABF",
"1X c #95B7C0",
"2X c #93B9C5",
"3X c #B0BFC0",
"4X c #AAC3C7",
"5X c #B5C4C4",
"6X c #BBC6C6",
"7X c #BDC8C7",
"8X c #B4CCCE",
"9X c #BCCBCB",
"0X c #AACED7",
"qX c #ADD2DC",
"wX c #BCD0D2",
"eX c #B5D5DB",
"rX c #BEDFE7",
"tX c #B6DAE2",
"yX c #C6CBC1",
"uX c #CBCEC3",
"iX c #C2CCCB",
"pX c #CFD1C6",
"aX c #D0D2C7",
"sX c #D2D4C9",
"dX c #D6D8CD",
"fX c #D8DACF",
"gX c #C1CFD0",
"hX c #CBD3D2",
"jX c #C0D2D3",
"kX c #D0D6D5",
"lX c #DBDDD2",
"zX c #DADEDA",
"xX c #D6DAD6",
"cX c #DEE0D5",
"vX c #DEE1DE",
"bX c #E0E2D7",
"nX c #E3E5DA",
"mX c #E6E8DE",
"MX c #E8EADF",
"NX c #CEE2E3",
"BX c #CFE9EC",
"VX c #D5E6E6",
"CX c #E3E6E3",
"ZX c #E5E8E6",
"AX c #EBEDE2",
"SX c #EBEDEB",
"DX c #EFF1E6",
"FX c #F0F2E7",
"GX c #F3F5EB",
"HX c #F7F9EE",
"JX c #F8FAEF",
"KX c #F2F2F2",
"LX c #F7F8F0",
"PX c #FBFCF4",
"IX c #FFFFFD",
"UX c None",
/* pixels */
"UXUXUXUXUXUXUXUXUXUXUXUXUXUXUXUXUXUXUXUXUXUXUXUXUXUXUXUXUXUXUXUXUXUXUXUXUXUXUXUXUXUXUXUXUXUXUXUXUXUXUXUXUXUXUXUXUXUXUXUXUXUXUXUXUXUXUXUXUXUXUX",
"UXUXUXUXUXUXUXUXUXUXUXUXUXUXUXUXUXUXUXUXUXUXUXUXUXUXUXUXUXUXUXUXUXUXUXUXUXUXUXUXUXUXUXUXUXUXUXUXUXUXUXUXUXUXUXUXUXUXUXUXUXUXUXUXUXUXUXUXUXUXUX",
"UXUXUXUXUXUXUXUXUXUXUXUXUXUXUXUXUXUXUXUXUXUXUXUXUXUXUXUXUXUXUXUXUXUXUXUXUXUXUXUXUXUXUXUXUXUXUXUXUXUXUXUXUXUXUXUXUXUXUXUXUXUXUXUXUXUXUXUXUXUXUX",
"UXUXUXUXUXUXUXUXUXUXUXUXUXUXUXUXUXUXUXUXUXUXUXUXUXUXUXUXUXVXNXgX6X6X6XiX6X6X6XgXNXVXUXUXUXUXUXUXUXUXUXUXUXUXUXUXUXUXUXUXUXUXUXUXUXUXUXUXUXUXUX",
"UXUXUXUXUXUXUXUXUXUXUXUXUXUXUXUXUXUXUXUXUXUXUXUXUXVXwX9XhXkXzXSXKXKXKXKXKXKXKXSXzXkXhX9XwXNXUXUXUXUXUXUXUXUXUXUXUXUXUXUXUXUXUXUXUXUXUXUXUXUXUX",
"UXUXUXUXUXUXUXUXUXUXUXUXUXUXUXUXUXUXUXUXUXUXUXwX5XhXCXKXIXIXIXIXIXIXIXIXIXIXIXIXIXIXIXKXZXhX6X8XUXUXUXUXUXUXUXUXUXUXUXUXUXUXUXUXUXUXUXUXUXUXUX",
"UXUXUXUXUXUXUXUXUXUXUXUXUXUXUXUXUXUXUXUXUX8X7XzXKXIXIXIXIXIXIXPXPXLXHXHXLXLXPXPXPXIXIXIXIXIXKXCX7X8XBXUXUXUXUXUXUXUXUXUXUXUXUXUXUXUXUXUXUXUXUX",
"UXUXUXUXUXUXUXUXUXUXUXUXUXUXUXUXUXUXUX8X7XCXPXIXIXIXIXPXHXFXmXnXbXzXzXlXlXcXbXnXAXFXGXPXIXIXIXIXIXCXiX8XUXUXUXUXUXUXUXUXUXUXUXUXUXUXUXUXUXUXUX",
"UXUXUXUXUXUXUXUXUXUXUXUXUXUXUXUXUXeX3XxXPXIXIXPXPXGXAXmXcXfXdXdXsXsXsXsXsXsXdXdXdXfXbXnXAXGXPXPXIXIXPXcX5XeXUXUXUXUXUXUXUXUXUXUXUXUXUXUXUXUXUX",
"UXUXUXUXUXUXUXUXUXUXUXUXUXUXUXUX4XyXKXIXPXPXPXFXMXcXfXsXsXsXaXsXpXpXpXpXpXaXpXsXpXsXsXsXfXbXmXFXJXPXIXIXFXuX4XUXUXUXUXUXUXUXUXUXUXUXUXUXUXUXUX",
"UXUXUXUXUXUXUXUXUXUXUXUXUXUXUX$XfXPXPXPXPXFXmXlXdXsXsXsXaXaXpXpXpXpXpXpXpXpXpXpXpXaXsXaXsXsXfXcXmXFXJXPXIXPXzX$XrXUXUXUXUXUXUXUXUXUXUXUXUXUXUX",
"UXUXUXUXUXUXUXUXUXUXUXUXUXtX$XnXPXPXPXGXmXbXfXsXsXsXaXpXpXpXpXpXpXpXpXpXpXpXpXpXpXpXpXpXaXaXpXsXdXcXmXGXJXPXPXMX$XeXUXUXUXUXUXUXUXUXUXUXUXUXUX",
"UXUXUXUXUXUXUXUXUXUXUXUXqX#XCXPXJXGXDXnXfXsXsXsXpXpXpXpXpXpXpXpXpXpXpXpXpXpXpXpXpXpXpXpXpXaXsXaXpXsXlXnXAXGXJXJXAX$X0XUXUXUXUXUXUXUXUXUXUXUXUX",
"UXUXUXUXUXUXUXUXUXUXUXqX+XCXJXJXGXAXcXdXsXsXpXaXpXpXpXpXpXpXpXaXpXpXaXpXpXpXpXpXpXpXaXpXpXpXpXaXaXaXaXdXbXmXGXHXJXAX+X0XUXUXUXUXUXUXUXUXUXUXUX",
"UXUXUXUXUXUXUXUXUXUXUX+XnXHXHXFXAXlXsXsXsXpXpXpXpXpXpXpXpXpXpXaXpXpXpXpXpXpXpXpXpXpXpXpXpXpXpXpXpXaXaXaXdXzXmXFXGXHXnX+XqXUXUXUXUXUXUXUXUXUXUX",
"UXUXUXUXUXUXUXUXUXUX_.lXGXFXDXmXfXsXaXsXpXpXpXpXpXaXpXpXpXpXpXpXpXpXpXpXpXpXpXaXpXpXpXpXpXpXpXpXpXpXaXaXaXsXfXnXFXFXHXcX_.UXUXUXUXUXUXUXUXUXUX",
"UXUXUXUXUXUXUXUXUX).yXGXFXDXnXlXsXaXaXaXpXpXpXpXpXpXpXpXpXpXpXpXpXpXpXpXpXpXpXpXpXpXpXaXpXpXpXpXpXpXpXaXaXaXsXlXmXAXFXGXaX).UXUXUXUXUXUXUXUXUX",
"UXUXUXUXUXUXUXUX1XXXAXFXAXnXlXsXsXaXpXaXpXpXpXpXpXaXpXpXpXpXpXpXpXpXpXaXpXpXaXpXpXpXpXpXpXaXpXpXpXpXpXpXaXaXaXsXfXmXAXFXAX%X`.UXUXUXUXUXUXUXUX",
"UXUXUXUXUXUXUXUX!.zXDXAXmXlXsXaXaXaXaXpXpXpXpXpXpXpXpXpXpXpXpXpXpXpXpXpXpXpXpXpXpXpXpXpXpXpXpXpXpXpXpXpXpXpXaXaXsXlXmXAXDXbX/.UXUXUXUXUXUXUXUX",
"UXUXUXUXUXUXUXQ.,XAXmXmXcXdXaXaXaXaXpXpXpXpXaXpXpXpXpXpXaXpXpXpXpXpXpXpXpXpXpXpXpXpXpXpXpXpXpXpXpXpXpXpXaXpXaXaXaXdXlXnXAXAXyXQ.UXUXUXUXUXUXUX",
"UXUXUXUXUXUXUX/.nXmXmXbXdXaXaXaXpXpXpXpXpXpXpXpXpXaXpXpXpXpXpXpXpXpXpXpXpXaXpXpXpXpXpXpXpXpXaXpXpXaXaXpXpXpXpXpXaXaXdXbXnXAXnX{.2XUXUXUXUXUXUX",
"UXUXUXUXUXUXR.,XmXnXbXfXaXaXaXpXpXpXpXaXpXpXpXpXpXpXpXpXpXpXpXpXaXpXpXpXpXpXpXpXpXaXpXpXpXpXpXpXpXpXpXpXpXpXpXpXaXaXaXlXbXnXmXyXR.UXUXUXUXUXUX",
"UXUXUXUXUXUXJ.cXnXnXlXdXaXaXpXpXpXpXpXpXpXpXaXpXpXpXpXpXpXpXaXpXpXaXpXpXpXpXpXpXaXpXpXpXpXpXpXpXpXpXpXpXpXpXpXpXpXaXaXsXlXbXnXbX~.UXUXUXUXUXUX",
"UXUXUXUXUXk.%XnXnXzXdXaXaXaXpXaXpXpXpXpXpXpXpXpXpXpXpXpXaXpXpXpXpXpXpXpXpXpXpXpXpXpXpXpXpXpXpXpXpXpXpXpXpXpXpXaXpXpXpXpXfXbXbXnX:Xk.UXUXUXUXUX",
"UXUXUXUXUXC.sXcXcXlXsXaXaXpXaXaXpXaXaXaXpXpXpXpXpXpXaXpXpXpXpXpXpXpXpXpXpXpXpXpXpXpXpXpXpXpXpXaXpXpXpXpXpXaXpXpXpXpXaXaXaXfXcXbXsXA.UXUXUXUXUX",
"UXUXUXUXl.P.lXcXcXdXaXpXuXuXyXuXyXuXyXaXpXpXpXpXpXpXpXuXuXpXpXpXpXpXpXuXyXuXuXpXpXpXpXpXpXyXuXpXpXpXaXpXpXaXaXuXyXpXuXpXaXdXlXzXcXP.l.UXUXUXUX",
"UXUXUXUXg.OXlXlXfXaX#XF.m.m.m.m.m.].,XpXpXaXpXpXpXpX*XF.I.*XyXpXyX'.v.1.0.v.].>XpXuX;XP.v.v.J. X;XuXaXaXyX XF.y.1.y.F.%XyXsXfXlXcX=Xi.UXUXUXUX",
"UXUXUXUXi.yXdXlXdXaX>.o # # # # & ` #XyXpXpXpXpXpXuXF.= l ~.>XyX1.* o O & # L |.>X].A # # # O f Z.*XuXyXN.0 o # # # 8 v.;XpXdXlXfXyXg.UXUXUXUX",
"UXUXUXUXZ.aXdXdXsXuXo.  1 I ^ ^ ( t.+XyXpXpXpXpXpXuX].%.-.!.;X'.<   y ^ ] / 0.|.#XD   w I I w . r G.;X].0   2 I [ ] ` D.;XuXsXdXdXsXG.UXUXUXUX",
"UXUXUXf.K.sXdXdXsXuXo.  y w.S.!.^.|.;XuXpXaXpXpXpXuXyX@X{.%XyXO.  2  .A.{.{.+X*XF.# = | j.W.C.t . ( {.4.. 1 { j.^.(.(.#X,XaXsXdXdXdXK.f.UXUXUX",
"UXUXUXs.P.sXdXsXaXyXO.  y j.%X,X,X,X;XOX*X,XOX'. X%X X]. X*X*XD   n j.%X<XyXyXyXO.  l g.#X,X%XO.  l E...  y r.@XyXyX,XyXpXaXpXdXsXsX[.w.UXUXUX",
"UXUXUX9.XXsXsXsXaXyXO.  i S.;XaXaXaXm.0 *.u.a = :.T = = D /.@Xf   ^ W.>XpXpXpXyXW   v S.*XpXyX1.. r j.<.X 1 a.%XyXaXpXpXaXaXaXsXsXsXOX;.UXUXUX",
"UXUXUX&.&XpXsXaXaXyX..  d k.*XuXpXyXF.o 9 d v J 0.` 0   w j.].a X ' /.yXaXaXpX;XL   v E.,XpXyXy.X r h.G.0   J !.;XaXaXaXaXaXaXaXaXpX=X&.UXUXUX",
"UXUXUX%.oXpXpXaXpXyXo.  e [ y.J.*XyXK.# X B r.D.!./.&.X e g./.p . ' {.yXaXaXpX,XL   v E.;XpXyXy.. r h.+Xy.* X E (.,XuXaXuXaXaXaXaX<XOX%.UXUXUX",
"UXUXUX[ oXuXpXpXpXuXo.  . # # D {.>XJ.# # | !.;XyX;Xy.X e i.~.p . ' (.yXpXaXuX;XL   n E.,XpXyXy.. r h.%X#X*.* X E {.,XuXaXaXaXaXpX<XXX} UXUXUX",
"UXUXUX[ XX<XuXpXaXuXo.  2 I ^ :.(.;XJ.O * 9.@XuXaXyXx.X e i./.p X ' (.yXpXpXpXyXL   n D.;XyXyXy.X r h.;X,X#X:.* @ E (.,XuXuXaXaXpX<XXX} UXUXUX",
"UXUXUX_ .X>X<XpXaXyXo.  t w.W.+X*XyXJ.# * e.%XuXaXuXx.X 0 i.~.q . ' {.yXpXpXpX;XL   t 0.m.Z.Z.)   r j.;XuX,X#X<.= X ) |.yXaXaXaX<X,X.X' UXUXUX",
"UXUXUX^ }.:X,XuXpXyX..  y A.*XyXpXpXJ.# * e.#XuXaXyXv.X e i.~.p . ' (.yXpXpXpXyXL   . O # # # @   r h.=XaXpX,X#X%.# & 0.%XyXpXyX,X:X[.( UXUXUX",
"UXUXUXY T.&X>XuXpXyXo.  i S.;XyXpXuXK.O * e.%XuXpXuXx.X 9 g./.t X [ (.yXpXpXpX;XL   2 m B J B i   r j.-XpXpXaX,X{.S   S /.,XaXuX>X=X[.^ UXUXUX",
"UXUXUXC H.&X:X<XaXyX..  d S.;XpXaXuXJ.O * e.%XaXpXyXv.X 9 g.{.f . ( /.yXpXpXuXyXL   l s.E.!.!.%.. r j.-XuXpXaXuX;X1.X q A.;XpXyX=X&XU.I UXUXUX",
"UXUXUXZ z.OX=X<XpXyXO.  t A.;XpXpXuXK.# * e.%XuXaXyXx.X w g.{.A   J !.,XaXaXaX;XL   v S.%X,X;X4.. r h.;XuXaXaXaXyXv.X 9 p.*XpX<X:XoXM.C UXUXUX",
"UXUXUXV 1.XXOX>XuXyXO.  i S.;XpXpXpXK.# * e.%XpXaXuXx.X e g.#X..  9 j.%XyXuXyX;XL   v E.,XaXyXy.X r h.#X X;X;XyX*X..  r j.*XuX>XoXOX1.V UXUXUX",
"UXUXUXUXO.}.OX:XyXyXo.  i S.;XpXpXuXK.# * e.%XuXaXyXx.X e g.@XG.= . l 1.v.>.v.@XD   v W.;XpXpX4.  q j.x.0 L 1.4.L #   K D.>X<X:XXX.X*.UXUXUXUX",
"UXUXUXUXI I.XXOX<XyXO.X l D.,XpXpXuXP.* 1 i.%XuX,X].) # 8 %.P.+X..# X # & @ L !.T . J W.,XpXyXz.# d j.t.0 o # # o O v e.{.<X<X&XXXU.U UXUXUXUX",
"UXUXUXUXN n.}.XX:XyX'.&.0.{.yXpXpXpXoX0.-.J.;XpX;XJ.4.[ ] :.G.XX{.t.` / ( [ g./.Z.%.t.{.yXaXyX{.:.<.!.+XD.&._ ( _ =.h.{.;XyX>XoX.XB.N UXUXUXUX",
"UXUXUXUXz O.[..XOX<X>X#X@X*XyXpXpXpXyX*X+X*XyXpXuX;X@X{.{.+X%X,XyX%X|.(.(.{.#X;X;X@X@X;XyXaXaX,X%X+X%X,X=X#X{.(.(.{.%X>XaXyX&X.X[.@.c UXUXUXUX",
"UXUXUXUXUXB L.[.XX:XuXyXyXpXpXpXpXpXpXyXpXyXpXpXuXuXuXyXyXyX<XpXaXyXuXyXyXyXuXuXuXyXuXpXaXaXaXuXyXyXaXpXpXuXuXyXyXyX<XpXuX>XoX[.I.K UXUXUXUXUX",
"UXUXUXUXUXx 4.Y.}.OX<XpXpXpXpXpXpXpXpXpXpXpXpXpXaXaXaXaXaXaXpXpXaXaXpXpXaXaXaXaXaXaXaXaXaXaXuXaXpXpXpXaXpXpXpXpXpXpXpXpX<X&X}.T.z.k UXUXUXUXUX",
"UXUXUXUXUXUXP L.T..X:XyXpXpXpXpXpXpXpXpXaXpXpXpXpXpXpXpXpXpXpXpXpXpXpXpXpXpXpXpXpXpXpXpXpXpXpXpXpXpXpXpXpXpXpXpXpXpXpX<X:XXXT.I.E j UXUXUXUXUX",
"UXUXUXUXUXUXx 4.Y.[.oX>XpXpXpXpXpXpXpXpXpXpXaXpXpXpXpXpXpXpXaXpXaXpXpXpXpXpXpXpXpXpXpXpXpXpXpXpXpXpXpXpXpXpXpXpXpXpXuX,XOX[.U.7.x UXUXUXUXUXUX",
"UXUXUXUXUXUX5 P V.U.[.=X<XpXpXpXpXpXpXpXpXpXpXpXpXpXpXpXpXpXpXpXpXpXpXpXpXpXaXpXpXpXpXpXpXpXpXpXpXpXpXpXpXpXpXpXuXpX<X=X}.U.H.R 5 UXUXUXUXUXUX",
"UXUXUXUXUXUXUX7 #.L.Y..X:X<XpX<XpXpXpXpXpXpXpXpXpXpXpXaXpXpXpXaXpXpXpXpXpXaXpXpXpXpXpXpXpXpXpXpXpXpXpXpXpXpXpXpXpX<X:X.XU.H.2.u UXUXUXUXUXUXUX",
"UXUXUXUXUXUXUXUXv n.L.U.XX:XpXpXuXaXaXpXpXpXpXpXpXpXpXpXpXpXpXpXpXpXpXpXpXpXpXpXpXpXpXpXpXpXpXpXpXpXpXpXpXpXpXpXyX>XXXY.L.M.m UXUXUXUXUXUXUXUX",
"UXUXUXUXUXUXUXUX3 W N.L.T.XX,X<XpXuXpXpXpXpXpXpXpXpXpXpXaXpXpXpXpXpXpXpXpXpXpXpXpXpXpXpXpXpXpXpXpXpXpXpXpXpXpX<X,XoXY.L.B.Q 3 UXUXUXUXUXUXUXUX",
"UXUXUXUXUXUXUXUXUX4 X.B.H.T.OX:XuXpXuXpXpXpXpXpXpXaXpXpXpXpXpXpXpXpXaXpXpXpXpXpXpXpXaXpXpXpXpXpXpXpXpXpXpXpXuX>XOXT.H.B.@.6 UXUXUXUXUXUXUXUXUX",
"UXUXUXUXUXUXUXUXUXUXt ,.B.V.T.OX>X<XpXpXpXpXpXpXpXpXpXpXpXpXpXpXpXpXpXpXaXpXpXpXpXpXpXpXpXpXpXpXpXpXpXpXuXuX,XOXT.H.B.3.i UXUXUXUXUXUXUXUXUXUX",
"UXUXUXUXUXUXUXUXUXUX: g 3.N.V.Y.XX:XyXpXpXpXpXpXpXpXpXpXpXpXpXpXpXpXpXpXpXpXpXpXpXpXpXpXpXpXpXpXpXpXuXpXyX:XoXY.V.N.6.g : UXUXUXUXUXUXUXUXUXUX",
"UXUXUXUXUXUXUXUXUXUXUX; d 4.M.B.U..X:X<X<XpXpXpXpXpXpXpXpXpXpXpXpXpXpXpXaXpXpXpXpXpXpXpXpXaXpXpXpXuXpX<X:XXXU.B.M.6.g ; UXUXUXUXUXUXUXUXUXUXUX",
"UXUXUXUXUXUXUXUXUXUXUXUX- d ,.n.B.L.[.&X,X<XpXuXpXpXpXpXpXpXpXpXpXpXpXpXaXpXpXpXpXpXpXpXpXpXpXpXuX<X,X&X.XI.N.M.3.g - UXUXUXUXUXUXUXUXUXUXUXUX",
"UXUXUXUXUXUXUXUXUXUXUXUXUX$ t #.8.M.V.Y.XX:X<XpXuXuXpXpXpXpXpXpXaXpXpXpXpXpXpXpXaXpXpXaXpXpX<XpX<X:XXXY.V.n.c.$.t $ UXUXUXUXUXUXUXUXUXUXUXUXUX",
"UXUXUXUXUXUXUXUXUXUXUXUXUXUX$ 9 Q 7.c.M.H.T.OX:X<X<XuXpXpXpXpXpXpXpXpXpXpXpXpXpXpXpXpXpXpXuX<X:XOXT.I.M.c.7.! e $ UXUXUXUXUXUXUXUXUXUXUXUXUXUX",
"UXUXUXUXUXUXUXUXUXUXUXUXUXUXUXUX> F ,.7.8.N.L.[.OX:X<XuXuX<XuXpXpXpXpXpXpXpXpXpXpX<X<X<X,X:XOX[.I.N.8.8.,.G > UXUXUXUXUXUXUXUXUXUXUXUXUXUXUXUX",
"UXUXUXUXUXUXUXUXUXUXUXUXUXUXUXUXUX+ 0 R 5.7.8.M.H.T..XOX:X<X<X<X<XuX<XpXpX<X<X<X<X<X:X&X.XT.V.M.8.7.5.! q + UXUXUXUXUXUXUXUXUXUXUXUXUXUXUXUXUX",
"UXUXUXUXUXUXUXUXUXUXUXUXUXUXUXUXUXUXUX& s ! ,.6.7.8.N.H.T.T.OX&X:X:X,X:X:X:X:X=XXX[.Y.H.N.8.7.6.3.~ f & UXUXUXUXUXUXUXUXUXUXUXUXUXUXUXUXUXUXUX",
"UXUXUXUXUXUXUXUXUXUXUXUXUXUXUXUXUXUXUXUX. & t R @.5.5.6.8.c.M.B.H.I.U.U.U.I.H.B.N.8.8.6.5.5.#.R a & . UXUXUXUXUXUXUXUXUXUXUXUXUXUXUXUXUXUXUXUX",
"UXUXUXUXUXUXUXUXUXUXUXUXUXUXUXUXUXUXUXUXUXUXUX@ 8 h ! +.$.5.5.5.5.6.6.6.6.6.6.6.5.5.,.+.! A 8 #   UXUXUXUXUXUXUXUXUXUXUXUXUXUXUXUXUXUXUXUXUXUX",
"UXUXUXUXUXUXUXUXUXUXUXUXUXUXUXUXUXUXUXUXUXUXUXUXUX  # * s h G ~ +.X.X.X.X.X.X.~ H h s = #   UXUXUXUXUXUXUXUXUXUXUXUXUXUXUXUXUXUXUXUXUXUXUXUXUX",
"UXUXUXUXUXUXUXUXUXUXUXUXUXUXUXUXUXUXUXUXUXUXUXUXUXUXUXUXUX  . O & & # # O # & O X   UXUXUXUXUXUXUXUXUXUXUXUXUXUXUXUXUXUXUXUXUXUXUXUXUXUXUXUXUX",
"UXUXUXUXUXUXUXUXUXUXUXUXUXUXUXUXUXUXUXUXUXUXUXUXUXUXUXUXUXUXUXUXUXUXUXUXUXUXUXUXUXUXUXUXUXUXUXUXUXUXUXUXUXUXUXUXUXUXUXUXUXUXUXUXUXUXUXUXUXUXUX",
"UXUXUXUXUXUXUXUXUXUXUXUXUXUXUXUXUXUXUXUXUXUXUXUXUXUXUXUXUXUXUXUXUXUXUXUXUXUXUXUXUXUXUXUXUXUXUXUXUXUXUXUXUXUXUXUXUXUXUXUXUXUXUXUXUXUXUXUXUXUXUX",
"UXUXUXUXUXUXUXUXUXUXUXUXUXUXUXUXUXUXUXUXUXUXUXUXUXUXUXUXUXUXUXUXUXUXUXUXUXUXUXUXUXUXUXUXUXUXUXUXUXUXUXUXUXUXUXUXUXUXUXUXUXUXUXUXUXUXUXUXUXUXUX"
};
